<svg width="227" height="174" viewBox="0 0 227 174" fill="none" xmlns="http://www.w3.org/2000/svg">
<path d="M83.9305 54.9461C71.5885 61.7024 59.0664 62.1978 48.7964 57.6485C38.5265 53.0992 30.5987 43.4147 27.3106 29.7215C52.0395 16.2984 77.3991 27.6045 83.9305 54.9459V54.9461Z" fill="#199180"/>
<path d="M80.7773 53.7736L31.5894 31.7021C31.5442 31.7021 31.5442 31.6569 31.5442 31.6121C31.5442 31.5674 31.5894 31.5669 31.6346 31.5669L80.9121 53.4133C80.9334 53.4213 80.9528 53.4337 80.9691 53.4497C80.9854 53.4657 80.9982 53.4848 81.0067 53.506C81.0151 53.5272 81.0191 53.5499 81.0184 53.5727C81.0176 53.5955 81.0121 53.6178 81.0023 53.6384C80.957 53.7736 80.8673 53.8186 80.7773 53.7736Z" fill="white"/>
<path d="M52.4452 40.9364C51.4747 39.853 50.6839 38.6212 50.1029 37.2878C49.796 36.6221 49.5547 35.9282 49.3823 35.2158C49.2113 34.5063 49.1057 33.7826 49.067 33.0538C49.067 33.006 49.086 32.9602 49.1197 32.9264C49.1535 32.8926 49.1994 32.8736 49.2471 32.8736C49.2949 32.8736 49.3407 32.8926 49.3745 32.9264C49.4083 32.9602 49.4273 33.006 49.4273 33.0538C49.4106 33.7662 49.4864 34.4778 49.6526 35.1708C49.7942 35.8805 50.0054 36.5745 50.2833 37.2428C50.8269 38.5693 51.5547 39.8127 52.4452 40.9362V40.9364ZM67.3999 47.6479C65.952 47.7062 64.5226 47.9951 63.1657 48.5037C62.4917 48.7391 61.8428 49.0409 61.2286 49.4046C60.6218 49.7735 60.0491 50.1956 59.5171 50.6659C59.4812 50.7017 59.4326 50.7219 59.3819 50.7219C59.3312 50.7219 59.2826 50.7017 59.2467 50.6659C59.2109 50.63 59.1907 50.5814 59.1907 50.5307C59.1907 50.48 59.2109 50.4314 59.2467 50.3956C60.4005 49.4739 61.7134 48.7716 63.1205 48.3235C64.5007 47.862 65.9444 47.6188 67.3997 47.6027C67.4449 47.5577 67.4449 47.6027 67.3997 47.6479C67.4449 47.6027 67.4449 47.6479 67.3997 47.6479H67.3999ZM72.6248 49.9451C71.6543 48.8617 70.8635 47.6299 70.2825 46.2965C69.9756 45.6308 69.7343 44.9369 69.5619 44.2245C69.3909 43.515 69.2853 42.7913 69.2466 42.0625C69.2466 42.0147 69.2655 41.9689 69.2993 41.9351C69.3331 41.9013 69.3789 41.8823 69.4267 41.8823C69.4745 41.8823 69.5203 41.9013 69.5541 41.9351C69.5879 41.9689 69.6069 42.0147 69.6069 42.0625C69.5901 42.7749 69.6658 43.4865 69.832 44.1795C69.9736 44.8892 70.1848 45.5832 70.4626 46.2515C71.0063 47.5781 71.7342 48.8215 72.6248 49.9451C72.6698 49.9451 72.6698 49.8999 72.6248 49.9451ZM44.833 37.5581C43.385 37.6164 41.9557 37.9053 40.5987 38.4139C39.9249 38.6493 39.2761 38.9511 38.6619 39.3148C38.0551 39.6837 37.4822 40.1058 36.9501 40.5761C36.9086 40.5982 36.8622 40.6098 36.8151 40.6098C36.768 40.6098 36.7216 40.5982 36.68 40.5761C36.5898 40.5309 36.6348 40.3957 36.68 40.3058C37.8338 39.3841 39.1467 38.6819 40.5538 38.2337C41.9339 37.7722 43.3776 37.529 44.8327 37.5129C44.878 37.5129 44.878 37.5129 44.8327 37.5581H44.833Z" fill="white"/>
<path d="M83.9306 54.9453C77.3542 67.377 67.1745 74.7192 56.0938 76.5661C45.013 78.413 33.0314 74.7644 22.8064 65.1251C36.0043 40.306 63.3907 35.7567 83.9306 54.9451V54.9453Z" fill="#2AB19F"/>
<path d="M80.6421 55.7112L27.4457 64.4046C27.4005 64.4046 27.3553 64.4046 27.3553 64.3594C27.3553 64.3142 27.3553 64.2694 27.4005 64.2694L80.5519 55.3509C80.5984 55.3501 80.6441 55.3623 80.684 55.3862C80.7238 55.4101 80.7561 55.4447 80.7773 55.4861C80.8222 55.5761 80.732 55.6662 80.6421 55.7112Z" fill="white"/>
<path d="M49.9228 60.6205C48.5194 60.2411 47.1826 59.6487 45.9589 58.8637C45.3422 58.4752 44.7685 58.0221 44.2474 57.5123C43.7198 56.9994 43.2375 56.4418 42.806 55.8458C42.7912 55.8251 42.7807 55.8016 42.7749 55.7769C42.7692 55.7521 42.7684 55.7264 42.7725 55.7013C42.7767 55.6762 42.7858 55.6522 42.7993 55.6306C42.8127 55.609 42.8303 55.5902 42.851 55.5754C42.8717 55.5606 42.8951 55.5501 42.9199 55.5443C42.9447 55.5386 42.9704 55.5378 42.9955 55.5419C43.0206 55.5461 43.0446 55.5552 43.0662 55.5687C43.0878 55.5821 43.1065 55.5997 43.1213 55.6204C43.5216 56.2148 43.9738 56.7726 44.4726 57.2872C44.9777 57.7965 45.5365 58.2496 46.1393 58.6384C47.3205 59.473 48.6286 60.1118 50.013 60.5303C49.9678 60.5755 49.9678 60.6205 49.9228 60.6205ZM66.0936 57.9628C64.9327 58.8161 63.901 59.8326 63.0306 60.9807C62.5872 61.5521 62.2094 62.1716 61.9045 62.8274C61.6028 63.4692 61.3469 64.1315 61.1387 64.8095C61.1334 64.8338 61.1233 64.8568 61.109 64.8772C61.0946 64.8975 61.0763 64.9148 61.0552 64.9279C61.0341 64.941 61.0105 64.9498 60.9859 64.9536C60.9613 64.9575 60.9362 64.9564 60.912 64.9503C60.8879 64.9443 60.8652 64.9334 60.8453 64.9185C60.8254 64.9035 60.8088 64.8846 60.7963 64.8631C60.7839 64.8415 60.7758 64.8177 60.7728 64.793C60.7697 64.7683 60.7716 64.7432 60.7784 64.7193C60.9893 64.0146 61.2763 63.3349 61.6342 62.6922C61.9973 62.0499 62.4036 61.4329 62.8502 60.8456C63.7757 59.7227 64.8698 58.7502 66.0936 57.9628C66.1388 57.9628 66.1388 57.9176 66.0936 57.9628ZM71.724 57.0168C70.3206 56.6375 68.9837 56.045 67.7601 55.2601C67.1433 54.8716 66.5696 54.4187 66.0486 53.9089C65.5209 53.3959 65.0387 52.8383 64.6072 52.2422C64.5816 52.1991 64.572 52.1483 64.5803 52.0989C64.5885 52.0494 64.614 52.0045 64.6521 51.972C64.7423 51.8819 64.8323 51.9268 64.9225 52.017C65.3228 52.6113 65.775 53.169 66.2737 53.6836C66.7788 54.193 67.3376 54.6461 67.9404 55.035C69.1217 55.8696 70.4297 56.5084 71.8142 56.9269L71.724 57.0168ZM41.7252 62.0166C40.5642 62.87 39.5325 63.8865 38.662 65.0346C38.2185 65.606 37.8408 66.2254 37.5359 66.8813C37.2342 67.5231 36.9783 68.1854 36.7701 68.8633C36.7569 68.9098 36.7262 68.9492 36.6844 68.9734C36.6426 68.9976 36.5931 69.0045 36.5463 68.9928C36.4994 68.9811 36.459 68.9516 36.4336 68.9106C36.4081 68.8696 36.3996 68.8203 36.4098 68.7732C36.6207 68.0685 36.9077 67.3889 37.2656 66.7463C37.6287 66.104 38.035 65.487 38.4816 64.8997C39.4071 63.7767 40.5013 62.8041 41.7252 62.0166Z" fill="white"/>
<path d="M83.8846 54.9455C69.9661 52.7381 59.7411 45.4861 54.426 35.6217C49.1109 25.7572 48.6604 13.2349 54.426 0.397461C82.2181 4.85683 95.4158 29.2707 83.8846 54.9455Z" fill="#48DBC5"/>
<path d="M82.1287 52.063L56.634 4.58704C56.634 4.54183 56.634 4.49708 56.6792 4.49708C56.7244 4.49708 56.7691 4.49708 56.7691 4.54206L82.444 51.9279C82.4539 51.9484 82.4594 51.9708 82.4602 51.9937C82.461 52.0165 82.457 52.0392 82.4485 52.0604C82.44 52.0816 82.4272 52.1008 82.4109 52.1168C82.3946 52.1328 82.3752 52.1452 82.3538 52.1532C82.2639 52.1532 82.1737 52.1532 82.1287 52.063Z" fill="white"/>
<path d="M67.4891 24.5864C67.4054 23.1353 67.5267 21.6796 67.8494 20.2622C68.0218 19.5498 68.2632 18.8559 68.5702 18.1902C68.859 17.5214 69.2215 16.8868 69.6511 16.2983C69.6963 16.2084 69.8312 16.2084 69.9214 16.2531C70.0116 16.2979 70.0113 16.4335 69.9666 16.5237C69.5491 17.0969 69.1727 17.6988 68.8403 18.3252C68.5117 18.9708 68.2549 19.6506 68.0745 20.3522C67.671 21.7414 67.4887 23.1855 67.5343 24.6314C67.5343 24.5862 67.5343 24.6316 67.4891 24.5864ZM75.2815 39.0454C74.1107 38.1934 72.7996 37.5531 71.4078 37.1535C70.0402 36.7232 68.6037 36.5551 67.1738 36.6581C67.126 36.6581 67.0802 36.6391 67.0464 36.6053C67.0126 36.5715 66.9936 36.5257 66.9936 36.4779C66.9936 36.4302 67.0126 36.3843 67.0464 36.3505C67.0802 36.3168 67.126 36.2978 67.1738 36.2978C67.9121 36.2754 68.6509 36.3207 69.3809 36.433C70.098 36.5652 70.8053 36.7458 71.498 36.9734C72.8783 37.4199 74.1621 38.1228 75.2817 39.0454C75.3267 39.0002 75.3267 39.0454 75.2817 39.0454H75.2815ZM77.9841 44.0452C77.9005 42.5941 78.0218 41.1385 78.3444 39.7213C78.5168 39.0087 78.7583 38.3147 79.0652 37.649C79.3542 36.9801 79.7168 36.3456 80.1464 35.7571C80.1913 35.6672 80.3265 35.6672 80.4165 35.7121C80.5064 35.7571 80.5066 35.8923 80.4617 35.9825C80.0443 36.5557 79.668 37.1578 79.3356 37.7842C79.007 38.4298 78.7502 39.1096 78.5698 39.8112C78.1663 41.2004 77.9839 42.6444 78.0293 44.0902C78.0293 44.0452 78.0293 44.0902 77.9841 44.0452ZM63.5252 17.2893C62.3543 16.4372 61.0433 15.7969 59.6514 15.3974C58.2838 14.967 56.8472 14.7989 55.4172 14.9019C55.3694 14.9019 55.3236 14.8829 55.2898 14.8492C55.256 14.8154 55.2371 14.7696 55.2371 14.7218C55.2371 14.674 55.256 14.6282 55.2898 14.5944C55.3236 14.5606 55.3694 14.5416 55.4172 14.5416C56.1555 14.5193 56.8943 14.5645 57.6244 14.6768C58.3414 14.809 59.0487 14.9896 59.7414 15.2172C61.1182 15.672 62.4005 16.3741 63.5252 17.2893C63.5704 17.2893 63.5704 17.2443 63.5252 17.2893Z" fill="white"/>
<path d="M155.639 30.9821C155.404 30.8124 155.146 30.6759 154.874 30.5766C153.651 30.0663 152.279 30.0501 151.045 30.5314C150.428 30.7733 149.867 31.1374 149.395 31.6019C148.923 32.0664 148.549 32.6217 148.297 33.2343C148.208 33.4433 148.039 33.6082 147.828 33.6927C147.616 33.7772 147.38 33.7743 147.171 33.6846C146.962 33.595 146.797 33.426 146.713 33.2148C146.628 33.0036 146.631 32.7675 146.721 32.5584C147.422 30.9027 148.75 29.5914 150.414 28.9101C151.229 28.5716 152.104 28.4011 152.986 28.4089C153.869 28.4166 154.741 28.6025 155.549 28.9553C155.916 29.09 156.265 29.2715 156.585 29.4955L165.054 34.9008C165.633 35.286 166.137 35.7746 166.54 36.3422C167 37.0319 167.282 37.8249 167.361 38.6503C167.439 39.4757 167.312 40.3077 166.99 41.0719C166.84 41.4405 166.643 41.7886 166.405 42.1078C165.77 42.1142 165.152 41.9081 164.648 41.5224C164.693 41.4772 164.738 41.3872 164.783 41.342C165.045 41.0732 165.245 40.7503 165.369 40.3961C165.606 39.8033 165.674 39.1557 165.562 38.5267C165.451 37.8978 165.165 37.3126 164.738 36.8377C164.538 36.6465 164.327 36.4661 164.108 36.2972" fill="#C8E1FF"/>
<path d="M157.306 61.9268C157.087 61.9273 156.87 61.8846 156.668 61.801C156.465 61.7174 156.281 61.5947 156.126 61.4398C155.971 61.2849 155.849 61.101 155.765 60.8985C155.682 60.6961 155.639 60.4791 155.639 60.26V42.7381C155.639 36.8366 153.295 31.1768 149.122 27.0039C144.949 22.8309 139.289 20.4865 133.388 20.4865C127.486 20.4865 121.826 22.8309 117.653 27.0039C113.48 31.1768 111.136 36.8366 111.136 42.7381V60.26C111.136 60.702 110.961 61.1259 110.648 61.4385C110.335 61.751 109.912 61.9266 109.47 61.9266C109.028 61.9266 108.604 61.751 108.291 61.4385C107.979 61.1259 107.803 60.702 107.803 60.26V42.7381C107.803 28.5945 119.289 17.1085 133.388 17.1085C140.184 17.1124 146.701 19.8139 151.507 24.6195C156.312 29.4252 159.014 35.9419 159.018 42.7381V60.26C159.001 60.7045 158.814 61.1256 158.495 61.436C158.177 61.7463 157.751 61.9221 157.306 61.9268Z" fill="#DDE3EA"/>
<path d="M176.315 173.275H159.333C160.723 173.275 162.096 172.981 163.364 172.412C164.632 171.843 165.764 171.012 166.688 169.974C167.611 168.935 168.304 167.713 168.721 166.388C169.138 165.063 169.27 163.664 169.108 162.284L155.955 53.0984C155.672 50.7081 154.519 48.5055 152.717 46.9105C150.914 45.3155 148.587 44.4397 146.18 44.45H163.162C165.567 44.4469 167.89 45.3253 169.691 46.9189C171.492 48.5126 172.646 50.711 172.936 53.0984L186.089 162.284C186.244 163.663 186.107 165.058 185.687 166.38C185.267 167.702 184.573 168.921 183.652 169.958C182.73 170.995 181.6 171.826 180.336 172.397C179.072 172.968 177.702 173.267 176.315 173.275Z" fill="#D5173C"/>
<path d="M166.18 173.275H72.5791C71.1896 173.275 69.8159 172.981 68.5482 172.412C67.2806 171.844 66.1478 171.013 65.2245 169.974C64.3011 168.936 63.6081 167.714 63.1911 166.389C62.774 165.063 62.6424 163.664 62.8049 162.285L75.9576 53.0537C76.2405 50.6634 77.3932 48.4609 79.1958 46.8659C80.9984 45.2709 83.3249 44.3951 85.7318 44.4053H153.027C155.432 44.4022 157.755 45.2805 159.556 46.8742C161.357 48.4678 162.512 50.6663 162.802 53.0537L175.954 162.24C176.118 163.622 175.987 165.023 175.57 166.351C175.154 167.68 174.462 168.905 173.539 169.947C172.616 170.989 171.483 171.824 170.215 172.398C168.947 172.971 167.572 173.27 166.18 173.275Z" fill="#8A226F"/>
<path d="M147.712 60.8018C147.712 61.6659 147.456 62.5106 146.976 63.2292C146.495 63.9477 145.813 64.5077 145.015 64.8384C144.216 65.1691 143.338 65.2556 142.49 65.087C141.643 64.9184 140.864 64.5023 140.253 63.8912C139.642 63.2802 139.226 62.5017 139.057 61.6542C138.889 60.8066 138.975 59.9281 139.306 59.1298C139.637 58.3314 140.197 57.649 140.915 57.1689C141.634 56.6888 142.479 56.4326 143.343 56.4326C144.499 56.4413 145.605 56.9045 146.423 57.722C147.24 58.5395 147.703 59.6457 147.712 60.8018ZM99.8304 60.8018C99.8304 61.6659 99.5742 62.5106 99.0941 63.2292C98.614 63.9477 97.9316 64.5077 97.1332 64.8384C96.3349 65.1691 95.4564 65.2556 94.6088 65.087C93.7613 64.9184 92.9828 64.5023 92.3717 63.8912C91.7607 63.2802 91.3446 62.5017 91.176 61.6542C91.0074 60.8066 91.0939 59.9281 91.4246 59.1298C91.7553 58.3314 92.3153 57.649 93.0338 57.1689C93.7523 56.6888 94.5971 56.4326 95.4612 56.4326C96.0359 56.4294 96.6055 56.5402 97.1371 56.7586C97.6686 56.977 98.1516 57.2987 98.5579 57.7051C98.9643 58.1114 99.286 58.5944 99.5044 59.1259C99.7228 59.6575 99.8336 60.2271 99.8304 60.8018Z" fill="white"/>
<path d="M143.342 61.9268C143.123 61.9273 142.906 61.8846 142.704 61.801C142.502 61.7174 142.318 61.5947 142.163 61.4398C142.008 61.2849 141.885 61.101 141.801 60.8985C141.718 60.6961 141.675 60.4791 141.676 60.26V42.7381C141.676 36.8366 139.331 31.1768 135.158 27.0039C130.985 22.8309 125.326 20.4865 119.424 20.4865C113.523 20.4865 107.863 22.8309 103.69 27.0039C99.5168 31.1768 97.1725 36.8366 97.1725 42.7381V60.26C97.173 60.4791 97.1303 60.696 97.0467 60.8985C96.9632 61.1009 96.8404 61.2849 96.6856 61.4397C96.5307 61.5946 96.3468 61.7174 96.1444 61.801C95.9419 61.8845 95.725 61.9273 95.506 61.9268C95.066 61.9202 94.6459 61.7424 94.3348 61.4312C94.0237 61.1201 93.846 60.7 93.8394 60.26V42.7381C93.8394 28.5945 105.326 17.1085 119.424 17.1085C126.221 17.1124 132.737 19.8139 137.543 24.6195C142.349 29.4252 145.05 35.9419 145.054 42.7381V60.26C145.037 60.7045 144.85 61.1256 144.532 61.4359C144.213 61.7462 143.787 61.922 143.342 61.9268Z" fill="#F0F4F9"/>
<path d="M119.379 137.149C135.002 137.149 147.667 124.485 147.667 108.862C147.667 93.2393 135.002 80.5746 119.379 80.5746C103.757 80.5746 91.092 93.2393 91.092 108.862C91.092 124.485 103.757 137.149 119.379 137.149Z" fill="white"/>
<path d="M119.928 124.288C120.973 123.623 122.021 122.962 123.066 122.297C123.54 121.997 124.019 121.7 124.48 121.378C125.596 120.599 126.647 119.718 127.575 118.722C129.421 116.743 130.816 114.402 131.703 111.845C132.42 109.776 132.727 107.59 132.727 105.407V101.291C132.727 100.599 132.244 99.9956 131.592 99.8008C131.214 99.6864 130.84 99.5688 130.478 99.4173C130.602 99.4699 130.726 99.5225 130.846 99.5719C130.2 99.2967 129.594 98.9442 129.037 98.5175C129.143 98.5979 129.245 98.6783 129.35 98.7587C128.799 98.332 128.305 97.8403 127.878 97.2899C127.958 97.395 128.039 97.4971 128.119 97.6022C127.692 97.0456 127.337 96.4364 127.062 95.7901C127.114 95.9138 127.167 96.0375 127.216 96.1581C127.123 95.9355 127.037 95.7067 126.963 95.4778C126.752 94.8254 126.171 94.343 125.472 94.343H114.374C113.864 94.343 113.351 94.3306 112.84 94.343H112.819C112.117 94.343 111.535 94.8285 111.328 95.4778C111.254 95.7097 111.171 95.9355 111.075 96.1581C111.127 96.0344 111.18 95.9107 111.229 95.7901C110.954 96.4364 110.599 97.0425 110.172 97.6022C110.252 97.4971 110.333 97.395 110.413 97.2899C109.986 97.8403 109.492 98.332 108.941 98.7587C109.046 98.6783 109.148 98.5979 109.253 98.5175C108.697 98.9442 108.088 99.2967 107.444 99.5719C107.568 99.5194 107.692 99.4668 107.812 99.4173C107.448 99.5688 107.076 99.6864 106.699 99.8008C106.047 99.9987 105.564 100.602 105.564 101.291V105.02C105.564 105.676 105.564 106.332 105.611 106.987C105.71 108.348 105.939 109.705 106.319 111.013C107.08 113.611 108.391 115.998 110.135 118.067C111.477 119.659 113.1 120.949 114.853 122.059L118.277 124.229C118.304 124.248 118.335 124.266 118.363 124.285C118.694 124.495 119.183 124.545 119.554 124.44C119.912 124.341 120.302 124.062 120.478 123.728C120.88 122.965 120.654 122.077 119.925 121.613C119.368 121.261 118.811 120.908 118.258 120.556C117.547 120.104 116.839 119.656 116.127 119.204C115.63 118.889 115.144 118.552 114.674 118.193C114.779 118.274 114.881 118.354 114.986 118.435C113.818 117.529 112.766 116.477 111.86 115.308C111.941 115.413 112.021 115.515 112.101 115.621C111.18 114.424 110.413 113.113 109.822 111.721C109.875 111.845 109.928 111.969 109.977 112.089C109.374 110.658 108.963 109.155 108.756 107.615C108.774 107.751 108.793 107.89 108.811 108.026C108.678 107.024 108.657 106.022 108.657 105.017V101.291C108.279 101.789 107.899 102.284 107.522 102.782C108.613 102.454 109.674 102.015 110.602 101.347C111.721 100.543 112.67 99.5596 113.382 98.3722C113.768 97.7259 114.077 97.0178 114.309 96.3004C113.811 96.6776 113.317 97.058 112.819 97.4352H123.917C124.427 97.4352 124.94 97.4445 125.451 97.4352H125.472C124.974 97.058 124.48 96.6776 123.982 96.3004C124.783 98.7958 126.592 100.979 128.976 102.101C129.557 102.377 130.154 102.593 130.769 102.779C130.392 102.281 130.012 101.786 129.634 101.288V105.673C129.634 106.458 129.582 107.244 129.48 108.023C129.498 107.887 129.517 107.748 129.535 107.612C129.325 109.149 128.914 110.654 128.314 112.086C128.366 111.962 128.419 111.839 128.469 111.718C127.878 113.11 127.111 114.421 126.19 115.618C126.27 115.512 126.35 115.41 126.431 115.305C125.525 116.474 124.473 117.525 123.305 118.431C123.41 118.351 123.512 118.271 123.617 118.19C122.924 118.725 122.188 119.186 121.452 119.656C120.636 120.175 119.82 120.692 119.003 121.211C118.793 121.344 118.58 121.48 118.369 121.613C118.032 121.827 117.766 122.148 117.658 122.538C117.556 122.909 117.602 123.401 117.813 123.728C118.026 124.059 118.341 124.35 118.737 124.44C119.136 124.532 119.575 124.511 119.928 124.288Z" fill="#8A226F"/>
<path d="M112.628 109.574L115.804 112.75L116.255 113.202C116.846 113.792 117.851 113.792 118.441 113.202L120.893 110.749L124.774 106.869L125.668 105.975C125.949 105.694 126.119 105.279 126.119 104.88C126.119 104.5 125.952 104.049 125.668 103.786C125.374 103.517 124.987 103.316 124.573 103.334C124.162 103.353 123.775 103.492 123.478 103.786L121.026 106.238L117.146 110.119L116.252 111.012H118.438L115.262 107.837L114.811 107.385C114.53 107.104 114.115 106.934 113.716 106.934C113.336 106.934 112.884 107.101 112.622 107.385C112.353 107.679 112.152 108.065 112.17 108.48C112.195 108.891 112.334 109.281 112.628 109.574Z" fill="#8A226F"/>
<path d="M203.16 173.275H148.342C147.894 173.276 147.451 173.182 147.043 172.997C146.635 172.812 146.271 172.542 145.977 172.205C145.682 171.867 145.463 171.471 145.335 171.041C145.207 170.612 145.173 170.16 145.234 169.717L151.855 119.133C151.953 118.376 152.322 117.681 152.894 117.176C153.465 116.67 154.201 116.389 154.963 116.385H196.449C197.214 116.382 197.953 116.661 198.526 117.167C199.099 117.674 199.466 118.373 199.557 119.133L206.178 169.717C206.254 170.155 206.232 170.605 206.115 171.034C205.998 171.463 205.788 171.862 205.501 172.201C205.213 172.54 204.854 172.812 204.45 172.998C204.045 173.184 203.605 173.278 203.16 173.275Z" fill="#FF9A05"/>
<path d="M161.946 128.727C163.687 128.727 165.099 127.315 165.099 125.574C165.099 123.833 163.687 122.421 161.946 122.421C160.204 122.421 158.793 123.833 158.793 125.574C158.793 127.315 160.204 128.727 161.946 128.727Z" fill="white"/>
<path d="M189.558 128.727C191.299 128.727 192.711 127.315 192.711 125.574C192.711 123.833 191.299 122.421 189.558 122.421C187.816 122.421 186.405 123.833 186.405 125.574C186.405 127.315 187.816 128.727 189.558 128.727Z" fill="white"/>
<path d="M189.558 126.474C189.416 126.476 189.274 126.449 189.142 126.396C189.01 126.342 188.89 126.262 188.789 126.162C188.689 126.061 188.609 125.941 188.555 125.809C188.502 125.677 188.475 125.535 188.477 125.393V113.321C188.477 109.952 187.139 106.722 184.757 104.339C182.375 101.957 179.144 100.619 175.775 100.619C172.406 100.619 169.175 101.957 166.793 104.339C164.411 106.722 163.073 109.952 163.073 113.321V125.393C163.074 125.535 163.048 125.677 162.994 125.809C162.941 125.941 162.861 126.061 162.76 126.162C162.659 126.262 162.539 126.342 162.407 126.396C162.275 126.449 162.134 126.476 161.991 126.474C161.706 126.47 161.433 126.355 161.231 126.153C161.029 125.951 160.914 125.678 160.91 125.393V113.321C160.91 109.367 162.481 105.575 165.277 102.779C168.073 99.9827 171.866 98.4119 175.82 98.4119C179.774 98.4119 183.566 99.9827 186.362 102.779C189.158 105.575 190.729 109.367 190.729 113.321V125.393C190.705 125.687 190.571 125.961 190.354 126.162C190.137 126.362 189.853 126.473 189.558 126.474Z" fill="#DDE3EA"/>
<path d="M182.036 29.6316L223.611 56.7028C224.277 57.1313 224.852 57.6878 225.301 58.34C225.751 58.9923 226.067 59.7273 226.23 60.5024C226.393 61.2775 226.401 62.0774 226.253 62.8556C226.105 63.6338 225.804 64.3749 225.368 65.0359L211.359 86.5218C210.931 87.188 210.374 87.7627 209.722 88.2123C209.07 88.6619 208.335 88.9775 207.56 89.1409C206.784 89.3043 205.985 89.3123 205.206 89.1642C204.428 89.0162 203.687 88.7151 203.026 88.2785L161.451 61.2072C160.589 60.65 159.884 59.8815 159.403 58.9748C158.922 58.0681 158.681 57.0534 158.703 56.0272L159.063 40.9374C159.083 39.815 159.419 38.7209 160.033 37.7808C160.646 36.8407 161.512 36.0926 162.532 35.6225L176.18 29.2263C177.112 28.8008 178.137 28.615 179.159 28.6857C180.182 28.7565 181.171 29.0816 182.036 29.6316Z" fill="#A3CAED"/>
<path d="M165.729 44.451C167.322 44.451 168.612 43.1604 168.612 41.5682C168.612 39.9761 167.322 38.6854 165.729 38.6854C164.137 38.6854 162.847 39.9761 162.847 41.5682C162.847 43.1604 164.137 44.451 165.729 44.451Z" fill="white"/>
<path d="M168.207 40.0809C168.406 40.4029 168.54 40.7612 168.601 41.1351C168.661 41.5091 168.647 41.8913 168.559 42.2597C168.471 42.6282 168.311 42.9756 168.088 43.2819C167.866 43.5883 167.584 43.8476 167.261 44.0448C166.806 44.3429 166.273 44.4997 165.729 44.4953C165.095 44.5016 164.477 44.2955 163.973 43.9098C163.688 43.7003 163.444 43.4408 163.252 43.1441C162.862 42.5184 162.728 41.766 162.879 41.0442C163.03 40.3223 163.454 39.6867 164.063 39.2701C164.108 39.2251 164.153 39.2251 164.198 39.1801C164.857 38.7975 165.636 38.6776 166.379 38.8446C167.122 39.0116 167.775 39.4532 168.207 40.0809Z" fill="white"/>
<path d="M189.288 40.6668C189.439 40.7617 189.569 40.8866 189.669 41.0338C189.77 41.181 189.839 41.3474 189.873 41.5226C189.946 41.8638 189.882 42.2201 189.693 42.5137L176.315 63.0536C176.119 63.3468 175.818 63.5528 175.473 63.6284C175.129 63.704 174.769 63.6432 174.468 63.4589C174.317 63.364 174.187 63.2391 174.087 63.0919C173.986 62.9447 173.917 62.7783 173.883 62.6031C173.81 62.262 173.874 61.9058 174.063 61.6122L187.441 41.0723C187.534 40.923 187.656 40.7938 187.8 40.6923C187.944 40.5908 188.107 40.519 188.279 40.4813C188.451 40.4435 188.629 40.4405 188.802 40.4723C188.975 40.5042 189.14 40.5703 189.288 40.6668Z" fill="#92BFED"/>
<path d="M194.466 72.7374C194.196 71.6113 194.376 70.4403 195.007 69.269C195.187 68.9537 195.458 68.5484 195.773 68.0077C196.133 67.4675 196.403 67.062 196.629 66.7465C197.439 65.6656 198.43 64.99 199.556 64.8098C200.682 64.5845 201.899 64.8998 203.16 65.7558C204.421 66.6118 205.232 67.5572 205.502 68.6836C205.772 69.8099 205.547 70.9357 204.917 72.1518C204.511 72.8276 204.241 73.2779 204.151 73.4582C204.016 73.6384 203.745 74.0436 203.295 74.6743C202.484 75.7554 201.493 76.386 200.367 76.5662C199.196 76.7463 198.025 76.476 196.764 75.6652C195.503 74.8544 194.737 73.9085 194.466 72.7374ZM183.251 66.4312C183.231 66.3469 183.228 66.2593 183.244 66.1741C183.259 66.0888 183.292 66.0077 183.341 65.9359C183.426 65.8363 183.534 65.759 183.656 65.7106L208.88 56.6569C209.097 56.577 209.325 56.5314 209.556 56.5217C209.782 56.5423 209.999 56.6197 210.187 56.7469L211.628 57.6928C211.786 57.7985 211.898 57.9591 211.944 58.1433C211.98 58.3139 211.948 58.492 211.853 58.6387C211.768 58.7383 211.66 58.8157 211.538 58.8641L186.314 67.9178C186.097 67.9977 185.869 68.0433 185.638 68.0529C185.424 68.0386 185.22 67.96 185.052 67.8276L183.611 66.8819C183.522 66.8376 183.443 66.7744 183.381 66.6965C183.319 66.6187 183.274 66.5282 183.251 66.4314V66.4312ZM199.601 73.8185C200.073 73.6427 200.482 73.3287 200.773 72.9176C201.056 72.5518 201.326 72.1762 201.583 71.7915C201.833 71.4314 202.059 71.0552 202.259 70.6654C202.526 70.2173 202.651 69.6994 202.619 69.179C202.574 68.6835 202.304 68.2781 201.764 67.9178C201.55 67.7675 201.307 67.6655 201.05 67.6188C200.794 67.5722 200.53 67.5819 200.277 67.6474C199.79 67.817 199.365 68.1313 199.061 68.5484C198.881 68.8187 198.61 69.179 198.295 69.6295C198.035 70.0224 197.794 70.4283 197.575 70.8455C197.321 71.2812 197.211 71.7853 197.259 72.2869C197.304 72.7824 197.575 73.1879 198.115 73.5482C198.656 73.8636 199.151 73.9537 199.601 73.8185ZM189.782 55.8911C189.467 54.765 189.647 53.6389 190.277 52.5128C190.458 52.1975 190.728 51.792 191.043 51.2516C191.337 50.8114 191.637 50.3759 191.944 49.9454C192.755 48.8643 193.746 48.1886 194.872 48.0083C195.998 47.7834 197.214 48.0987 198.476 48.9544C199.737 49.7652 200.502 50.7561 200.773 51.8822C201.043 53.0083 200.863 54.1344 200.187 55.3507L199.376 56.7019C199.241 56.882 198.971 57.2873 198.52 57.9179C197.71 58.954 196.764 59.5847 195.638 59.7648C194.512 59.945 193.295 59.6297 192.079 58.8189C190.818 57.9631 190.097 57.0174 189.782 55.8911ZM194.872 56.9722C195.359 56.8026 195.784 56.4883 196.088 56.0712C196.371 55.7055 196.642 55.3299 196.899 54.9452C197.145 54.5675 197.371 54.1765 197.575 53.7741C197.841 53.326 197.967 52.8081 197.935 52.2877C197.89 51.792 197.62 51.3868 197.079 51.0265C196.866 50.8762 196.622 50.7742 196.366 50.7275C196.109 50.6808 195.845 50.6906 195.592 50.7561C195.105 50.9257 194.681 51.2401 194.376 51.6571C194.196 51.9272 193.926 52.2877 193.611 52.7832C193.295 53.2334 193.07 53.6389 192.89 53.9542C192.637 54.39 192.527 54.894 192.575 55.3956C192.62 55.8911 192.89 56.2966 193.431 56.6569C193.926 57.0172 194.421 57.1524 194.872 56.9722Z" fill="white"/>
<path d="M165.009 43.4592C163.88 44.158 162.521 44.3845 161.226 44.0899L151.406 41.8375C150.444 41.6138 149.543 41.1831 148.764 40.5753C147.986 39.9674 147.349 39.1971 146.899 38.318C146.449 37.439 146.196 36.4723 146.157 35.4854C146.119 34.4984 146.296 33.515 146.677 32.6037C146.767 32.3955 146.936 32.2317 147.147 32.1479C147.358 32.0641 147.593 32.0672 147.802 32.1566C148.01 32.246 148.175 32.4143 148.259 32.6248C148.344 32.8352 148.342 33.0706 148.253 33.2795C147.959 33.9523 147.822 34.6835 147.853 35.4174C147.884 36.1512 148.083 36.8682 148.433 37.5135C148.761 38.1771 149.235 38.7573 149.821 39.21C150.406 39.6627 151.087 39.976 151.812 40.126L161.631 42.3781C162.205 42.5047 162.801 42.4799 163.362 42.3062C163.922 42.1324 164.428 41.8157 164.829 41.3872C164.906 41.3044 164.999 41.2375 165.102 41.1905C165.204 41.1434 165.315 41.117 165.428 41.1128C165.541 41.1086 165.654 41.1267 165.76 41.1661C165.866 41.2054 165.963 41.2652 166.046 41.3421C166.128 41.419 166.195 41.5115 166.242 41.6142C166.289 41.7169 166.316 41.8279 166.32 41.9409C166.324 42.0538 166.306 42.1665 166.267 42.2724C166.227 42.3783 166.168 42.4755 166.091 42.5583C165.785 42.9184 165.419 43.2232 165.009 43.4592Z" fill="#C8E1FF"/>
<path d="M39.5622 172.239C39.5622 172.51 39.472 172.78 39.472 172.915C39.4563 172.973 39.4203 173.023 39.3706 173.056C39.3209 173.089 39.2609 173.103 39.2016 173.095H27.085C27.0445 173.099 27.0035 173.094 26.9657 173.078C26.9279 173.063 26.8943 173.039 26.8677 173.008C26.8412 172.977 26.8225 172.94 26.8133 172.901C26.8041 172.861 26.8045 172.82 26.8147 172.78L27.2652 170.843L28.7516 164.537L33.5712 165.033C33.5712 165.033 33.2109 167.87 36.9947 168.951C39.3368 169.627 39.6072 171.249 39.5622 172.239Z" fill="#292561"/>
<path d="M34.9672 167.96C33.3456 166.699 33.5707 165.033 33.5707 165.033L28.7511 164.537L27.9403 167.96H34.9672Z" fill="#191937"/>
<path d="M74.1558 172.239C74.1558 172.51 74.0659 172.78 74.0659 172.915C74.0502 172.973 74.0142 173.023 73.9645 173.056C73.9148 173.089 73.8547 173.103 73.7955 173.095H61.6789C61.6383 173.099 61.5974 173.094 61.5596 173.078C61.5217 173.063 61.4881 173.039 61.4616 173.008C61.4351 172.977 61.4164 172.94 61.4072 172.901C61.3979 172.861 61.3984 172.82 61.4086 172.78L61.859 170.843L63.3454 164.537L68.1651 165.033C68.1651 165.033 67.8048 167.87 71.5883 168.951C73.9307 169.627 74.201 171.249 74.156 172.239H74.1558Z" fill="#292561"/>
<path d="M69.5619 167.96C67.9403 166.699 68.1655 165.033 68.1655 165.033L63.3458 164.537L62.535 167.96H69.5619Z" fill="#191937"/>
<path d="M0.329163 129.538L8.21176 139.267L22.1753 121.565L14.653 114.809L0.329163 129.538Z" fill="#EF996D"/>
<path d="M8.21222 139.267H11.5905L13.5725 141.655L23.5722 122.917L22.3559 122.872L22.1757 121.565L8.21222 139.267Z" fill="#E58C5C"/>
<path d="M18.4366 121.43C18.3689 121.419 18.3062 121.387 18.2567 121.34C18.2353 121.32 18.2183 121.295 18.2067 121.268C18.1951 121.241 18.1891 121.212 18.1891 121.182C18.1891 121.153 18.1951 121.124 18.2067 121.097C18.2183 121.069 18.2353 121.045 18.2567 121.025C18.3019 120.979 22.851 116.926 22.5807 114.088C22.5361 113.701 22.398 113.33 22.1782 113.009C21.9585 112.687 21.6637 112.423 21.3194 112.241C21.0797 112.092 20.8097 111.999 20.5292 111.967C20.2486 111.936 19.9647 111.968 19.6981 112.061C17.2208 113.007 15.2837 118.728 15.2387 118.773C15.2299 118.799 15.2158 118.824 15.1974 118.845C15.179 118.866 15.1567 118.884 15.1316 118.896C15.0809 118.921 15.0222 118.926 14.9684 118.908C14.9146 118.89 14.8702 118.851 14.8448 118.801C14.8195 118.75 14.8153 118.691 14.8332 118.637C14.9234 118.412 16.8603 112.647 19.5629 111.656C19.8937 111.526 20.2511 111.479 20.6043 111.518C20.9574 111.557 21.2957 111.682 21.59 111.881C22.4907 112.421 22.9862 113.142 23.0764 114.088C23.3467 117.196 18.7971 121.25 18.572 121.43C18.572 121.385 18.4816 121.43 18.4366 121.43Z" fill="#131514"/>
<path d="M38.4355 100.439C35.5977 100.169 32.7147 99.1329 30.7331 97.106C28.751 95.034 27.8952 91.7909 29.1565 89.2234C30.0572 87.3768 31.9941 85.8902 31.9041 83.8631C31.8589 82.3767 30.7331 81.0705 30.778 79.5841C30.868 78.2777 31.9041 77.1968 33.0752 76.6563C34.2463 76.1159 35.5977 76.0257 36.9041 75.9355C38.2106 75.8453 39.5616 75.7104 40.7327 75.1248C44.2011 73.3231 44.7865 68.0529 48.3901 66.5213C50.1469 65.8008 52.1739 66.161 53.8404 67.062C55.507 67.963 56.8582 69.3592 58.1644 70.7104C59.5608 72.1518 60.9572 73.6384 61.5879 75.53C62.0079 76.8002 62.0237 78.1694 61.6331 79.449C61.2725 80.62 60.5969 81.9263 61.2276 83.0074C61.813 84.0435 63.3446 84.3138 63.84 85.3947C64.4254 86.7012 63.1194 88.1423 63.2546 89.5837C63.3895 91.1153 65.0561 92.061 65.4166 93.5476C65.7769 95.2142 64.2455 96.7458 62.624 97.151C61.0024 97.5563 59.2455 97.1962 57.579 97.0159C54.9665 96.7457 51.9937 96.9259 49.5162 97.9618C48.5703 98.3673 47.8947 99.0429 46.8586 99.4484C45.5981 99.8892 44.3021 100.221 42.9848 100.439C41.4714 100.574 39.9489 100.574 38.4355 100.439Z" fill="#7C3A3A"/>
<path d="M72.6241 90.6199C72.6241 90.6199 76.9031 83.8182 78.4797 87.5568C80.0563 91.2953 73.8402 93.1872 73.8402 93.1872L72.6241 90.6199Z" fill="#FFD1C4"/>
<path d="M53.8866 81.6107V93.232C53.8866 93.232 57.6704 101.745 60.7783 102.511C61.2288 102.646 61.8594 102.511 62.625 102.241C66.9042 100.664 74.7868 93.8627 74.7868 93.8627L72.7147 90.0337L62.2197 93.8627C60.0125 83.6827 53.8866 81.6107 53.8866 81.6107Z" fill="#BA93DF"/>
<path d="M53.8866 86.2949V93.2765C53.8866 93.2765 57.6704 101.79 60.7783 102.556C61.2288 102.691 61.8594 102.556 62.625 102.285L62.7151 102.195C63.3006 101.474 62.9855 100.349 62.2647 99.718C61.589 99.0873 60.6431 98.817 59.7874 98.5467C58.8864 98.2763 57.9857 97.8708 57.445 97.1503C56.8596 96.3395 56.8144 95.2134 56.8596 94.2225C56.8596 92.2854 56.9046 90.3038 56.9046 88.3667C56.9046 87.7813 57.2199 86.3848 56.6342 86.1597C56.0486 85.9346 54.6974 86.3399 54.0667 86.3848C53.9766 86.2497 53.9316 86.2949 53.8866 86.2949Z" fill="#9859CD"/>
<path d="M21.4549 158.32V158.816C21.5901 161.608 22.626 164.221 25.0583 166.248H40.1029C39.6075 163.86 39.5175 161.068 39.7876 158.23C39.7803 158.093 39.7956 157.956 39.8328 157.825C40.373 152.059 42.0398 145.573 43.9317 140.168C44.3369 138.906 44.5623 138.591 45.8235 134.222L45.9585 133.816C47.0846 129.852 48.3008 125.213 49.2918 121.204L49.6523 122.24L49.7872 122.645L51.7243 128.186L51.8592 128.591L53.8413 134.267C53.8413 134.312 55.3277 138.501 55.2375 138.23C55.2375 138.23 55.1026 138.996 54.9674 140.257C54.7873 141.834 54.5619 143.951 54.4719 145.933V146.338C54.2916 149.942 54.3368 154.041 54.9222 157.599C54.9674 157.734 54.9674 157.87 55.0124 158.005C55.7782 162.014 57.3095 165.302 60.1923 166.248H77.1288C76.3181 164.311 75.5523 162.464 74.8767 160.707C73.3903 156.608 71.4532 151.969 69.2912 143.456C69.2399 143.326 69.2094 143.189 69.201 143.05C68.7056 141.113 68.3003 139.312 67.8948 137.6C67.8498 137.465 67.8498 137.33 67.8048 137.195C66.7237 132.42 66.7687 132.42 66.4534 131.294C63.7058 120.753 55.1473 101.07 55.1473 101.024H42.6252C34.923 106.835 35.0129 123.321 29.6079 136.339C28.4366 139.176 25.8693 143.501 23.9774 147.96L23.8423 148.32C23.1948 149.843 22.6529 151.408 22.2205 153.005C22.1692 153.134 22.1389 153.271 22.1305 153.41C21.6692 155.006 21.4418 156.659 21.4549 158.32Z" fill="#FF9A05"/>
<path d="M49.1562 121.565C52.2193 116.114 52.2193 108.682 48.976 99.2229C48.976 99.2229 51.4985 101.43 52.5796 107.376C53.6607 113.322 53.8409 134.267 53.8409 134.267L49.1562 121.565Z" fill="#EC8400"/>
<path d="M40.7331 87.6925C41.0934 92.9177 42.625 101.025 42.625 101.025H55.057C55.057 101.025 58.2101 84.81 55.9129 82.7377C52.7146 79.8099 42.2645 80.6207 40.9133 83.7289C40.598 84.3595 40.598 85.8459 40.7331 87.6925Z" fill="#BA93DF"/>
<path d="M40.733 87.6924C41.0933 92.9176 42.6249 101.025 42.6249 101.025H48.2553C48.3005 100.98 48.3006 100.935 48.3453 100.89C48.5255 100.35 48.2553 99.7191 47.8498 99.3588C47.3824 99.0168 46.8433 98.7857 46.2733 98.6829C45.7049 98.576 45.1574 98.3783 44.6517 98.0975C43.751 97.5121 43.2555 96.431 43.2103 95.3499C43.1651 94.2688 43.4807 93.2329 43.8862 92.1968C44.2465 91.2058 44.6969 90.2149 44.9221 89.1341C45.1098 88.0683 45.0482 86.9736 44.7419 85.9357C44.5618 85.3051 44.2914 83.9989 43.4355 84.6745C42.7601 85.2151 42.2194 86.1161 41.634 86.7465C41.3187 87.0618 41.0483 87.3771 40.733 87.6924Z" fill="#9859CD"/>
<path d="M22.3556 108.457C22.3556 108.457 16.2297 111.925 19.3379 114.538C22.446 117.151 25.9142 109.944 25.9142 109.944L22.3556 108.457Z" fill="#FFD1C4"/>
<path d="M43.0302 81.9715C43.0302 81.9715 34.9224 85.4849 29.6523 96.2051C24.3822 106.925 21.4542 108.547 21.4542 108.547L26.4092 111.385C26.4092 111.385 36.2287 98.3674 36.8141 97.3764C37.4447 96.3403 47.6697 88.5477 43.0302 81.9715Z" fill="#BA93DF"/>
<path d="M46.1839 75.8004C46.1839 76.5662 47.2198 81.0255 47.2198 81.0255C47.2198 81.7461 50.9583 81.7461 50.9583 81.0255V78.8633C50.9583 78.8633 54.2017 79.3138 54.9223 78.6832C55.4179 78.2327 56.4089 73.5932 55.2376 70.5755C54.6521 68.9989 53.4361 67.8728 51.3189 67.9628C46.9497 68.1429 46.1839 71.4762 46.1389 73.7736C46.0968 74.4492 46.1119 75.1272 46.1839 75.8004Z" fill="#FFD1C4"/>
<path d="M45.8687 73.7295C45.8687 73.7295 50.2831 75.2609 51.9046 73.324C53.5712 71.342 55.1028 70.351 55.4631 70.351C54.8324 68.7295 53.5712 67.5132 51.319 67.6034C46.7245 67.8285 45.9137 71.342 45.8687 73.7293V73.7295Z" fill="#7C3A3A"/>
<path d="M38.3907 106.52C39.4718 106.25 40.5529 105.979 41.679 105.799C46.2004 104.994 50.8348 105.071 55.3272 106.024C56.003 106.159 56.6784 106.34 57.3542 106.52C57.3019 106.367 57.2417 106.216 57.1738 106.069C56.5884 105.934 56.0478 105.754 55.4174 105.619C50.8793 104.666 46.2008 104.589 41.634 105.394C40.5979 105.574 39.6519 105.799 38.661 106.024C38.5615 106.184 38.4712 106.35 38.3907 106.52ZM36.0485 112.916C36.3804 112.832 36.7107 112.742 37.0394 112.646C38.5258 112.24 40.0574 111.835 41.634 111.565C46.1554 110.76 50.7898 110.836 55.2822 111.79C56.5434 112.06 57.7143 112.421 58.8856 112.736C59.2459 112.826 59.6064 112.961 59.9667 113.051C59.9215 112.916 59.8315 112.736 59.7865 112.601C59.5162 112.511 59.2459 112.466 59.0207 112.376C57.8497 112.06 56.6784 111.7 55.4171 111.43C50.8791 110.476 46.2005 110.4 41.6338 111.204C40.0699 111.486 38.5215 111.846 36.9945 112.286C36.7447 112.367 36.4885 112.427 36.2287 112.466C36.1419 112.604 36.0809 112.756 36.0485 112.916ZM34.5169 119.087C35.3729 118.862 36.2737 118.637 37.0847 118.456C38.5708 118.051 40.1024 117.646 41.679 117.375C46.2004 116.57 50.8348 116.647 55.3272 117.601C56.5884 117.871 57.7595 118.231 58.9305 118.547C59.9667 118.862 61.0478 119.177 62.1289 119.402C62.2188 119.448 62.354 119.448 62.444 119.493C62.4036 119.335 62.3431 119.184 62.2638 119.042H62.1739C61.0928 118.772 60.0117 118.457 58.9755 118.186C57.8047 117.871 56.6334 117.51 55.3721 117.24C50.8341 116.287 46.1556 116.211 41.5888 117.015C40.0249 117.296 38.4763 117.657 36.9493 118.096C36.1837 118.321 35.3727 118.501 34.5619 118.682C34.5619 118.772 34.5169 118.952 34.5169 119.087ZM55.4171 122.961C53.502 122.561 51.5598 122.305 49.6065 122.195L49.7417 122.6C51.621 122.677 53.4899 122.918 55.3269 123.321C56.5882 123.591 57.7595 123.952 58.9305 124.267C59.9667 124.582 61.0478 124.898 62.1289 125.123C62.9394 125.303 63.7954 125.483 64.6514 125.618C64.6062 125.483 64.561 125.348 64.516 125.168C63.7502 125.033 62.9846 124.898 62.2188 124.717C61.1377 124.447 60.0566 124.132 59.0205 123.862C57.8497 123.591 56.6784 123.231 55.4171 122.961ZM33.0755 125.168H33.1657C34.5169 124.898 35.8232 124.537 37.0844 124.222C38.5708 123.817 40.1024 123.411 41.679 123.141C44.0587 122.732 46.4719 122.551 48.886 122.6C48.9372 122.471 48.9676 122.334 48.9759 122.195C46.5011 122.101 44.0235 122.282 41.5888 122.736C39.9672 123.006 38.4356 123.456 36.9493 123.817C35.7332 124.132 34.472 124.492 33.1655 124.762C33.1142 124.892 33.0839 125.029 33.0755 125.168ZM55.4171 128.771C54.1986 128.503 52.9654 128.308 51.7238 128.186L51.8587 128.591C53.0748 128.726 54.2011 128.907 55.3272 129.132C56.5884 129.402 57.7595 129.762 58.9305 130.078C59.9667 130.393 61.0478 130.708 62.1289 130.934C63.5521 131.272 64.9968 131.513 66.4529 131.654C66.4016 131.525 66.3712 131.388 66.3629 131.249C64.9698 131.082 63.5865 130.841 62.2188 130.528C61.1377 130.258 60.0566 129.943 59.0207 129.672C57.8497 129.402 56.6784 129.042 55.4171 128.771ZM31.409 131.249C32.0007 131.181 32.5875 131.076 33.1657 130.934C34.5169 130.663 35.8232 130.303 37.0844 129.988C38.5708 129.582 40.1024 129.177 41.679 128.907C43.5703 128.588 45.4822 128.408 47.3996 128.366C47.4509 128.237 47.4812 128.1 47.4895 127.961C45.5101 127.958 43.5347 128.139 41.5888 128.501C39.9672 128.771 38.4356 129.222 36.9493 129.582C35.688 129.897 34.3818 130.258 33.0306 130.528C32.5801 130.618 32.0846 130.708 31.499 130.798C31.4953 130.953 31.4649 131.105 31.409 131.249V131.249ZM55.4171 134.537C54.9217 134.402 54.3812 134.312 53.8408 134.222L53.9757 134.672L55.3272 134.942C56.5884 135.213 57.7595 135.573 58.9305 135.888C59.9667 136.204 61.0478 136.519 62.1289 136.744C63.9808 137.174 65.8632 137.461 67.7593 137.6C67.7141 137.465 67.7141 137.33 67.6689 137.195C65.836 137.048 64.0151 136.777 62.2188 136.384C61.1377 136.114 60.0566 135.798 59.0205 135.528C57.8497 135.168 56.6784 134.807 55.4171 134.537ZM29.2018 137.24C30.532 137.156 31.8558 136.99 33.1657 136.744C34.5169 136.474 35.8232 136.114 37.0844 135.798C38.5708 135.393 40.1024 134.987 41.679 134.717C43.0356 134.48 44.4038 134.315 45.7778 134.222C45.823 134.087 45.8681 133.952 45.913 133.816C44.4775 133.89 43.0483 134.055 41.634 134.312C40.0701 134.593 38.5215 134.954 36.9945 135.393C35.7332 135.708 34.4268 136.069 33.0755 136.339C31.8561 136.581 30.6225 136.747 29.3822 136.834C29.3035 136.96 29.2428 137.097 29.2018 137.24ZM54.9669 140.258C54.9669 140.393 54.9217 140.528 54.9217 140.663C55.0568 140.708 55.192 140.708 55.3272 140.753C56.5884 141.023 57.7595 141.384 58.9305 141.699C59.9667 142.014 61.0478 142.33 62.1289 142.555C64.456 143.064 66.8213 143.381 69.2005 143.501C69.1492 143.371 69.1189 143.234 69.1105 143.095C66.7903 143.01 64.4831 142.708 62.2188 142.194C61.1377 141.924 60.0566 141.609 59.0205 141.339C57.8497 141.023 56.6784 140.663 55.4171 140.393C55.2823 140.307 55.1265 140.26 54.9669 140.258ZM26.319 143.005C28.9315 143.231 31.5892 142.825 33.1655 142.51C34.5172 142.239 35.8232 141.879 37.0844 141.564C38.5708 141.159 40.1024 140.753 41.679 140.483C42.3995 140.348 43.1653 140.258 43.8862 140.167L44.0211 139.762C43.2045 139.838 42.3926 139.958 41.589 140.122C40.025 140.403 38.4764 140.764 36.9493 141.203C35.688 141.519 34.3818 141.879 33.0306 142.149C30.8694 142.601 28.6585 142.767 26.4542 142.645C26.4017 142.762 26.3566 142.882 26.319 143.005ZM54.4262 145.933V146.338C54.7415 146.384 55.0118 146.474 55.3272 146.519C56.5884 146.789 57.7595 147.149 58.9305 147.465C59.9667 147.78 61.0478 148.095 62.1289 148.32C64.9835 148.957 67.8975 149.289 70.822 149.311L70.6871 148.906C67.8384 148.898 64.999 148.581 62.2188 147.96C61.1377 147.69 60.0566 147.375 59.0205 147.104C57.8497 146.789 56.6334 146.428 55.4171 146.158C55.0933 146.057 54.762 145.982 54.4262 145.933ZM23.7965 148.32C23.8417 148.32 23.8417 148.32 23.8867 148.366C27.1298 149.311 31.0487 148.726 33.1205 148.32C34.472 148.05 35.7782 147.69 37.0394 147.374C38.5258 146.969 40.0574 146.564 41.634 146.293C41.7239 146.293 41.8591 146.248 41.9943 146.248C42.0395 146.113 42.0842 145.978 42.1294 145.798C41.9491 145.843 41.7689 145.843 41.5888 145.888C39.9672 146.158 38.4356 146.609 36.9493 146.969C35.688 147.284 34.3818 147.645 33.0306 147.915C31.0035 148.32 27.1298 148.906 23.9767 147.96H23.9317L23.7965 148.32ZM55.4171 151.924C55.0568 151.834 54.6965 151.789 54.3362 151.699V152.104C54.6516 152.149 54.9669 152.239 55.3272 152.284C56.5884 152.555 57.7595 152.915 58.9305 153.23C59.9667 153.545 61.0478 153.861 62.1289 154.086C65.0409 154.744 68.017 155.076 71.0024 155.077C71.5429 155.077 72.1285 155.077 72.6689 155.032L72.5338 154.627C69.0538 154.774 65.5697 154.456 62.1739 153.681C61.0928 153.41 60.0117 153.095 58.9755 152.825C57.8497 152.555 56.6784 152.194 55.4171 151.924ZM22.085 153.41C22.6518 153.728 23.2573 153.97 23.8865 154.131C27.13 155.077 31.0487 154.491 33.1205 154.086C34.472 153.816 35.7782 153.455 37.0394 153.14C38.1655 152.825 39.3366 152.509 40.5979 152.284C40.6431 152.149 40.6431 152.014 40.688 151.879C39.3816 152.149 38.1655 152.464 36.9495 152.78C35.6882 153.095 34.3818 153.456 33.0306 153.726C31.0035 154.131 27.1298 154.672 23.9767 153.771C23.3452 153.596 22.7395 153.338 22.1752 153.005C22.1667 153.144 22.1362 153.281 22.0848 153.41H22.085ZM55.4171 157.69C55.2414 157.638 55.06 157.607 54.8769 157.599C54.9217 157.735 54.9217 157.87 54.9669 158.005C55.102 158.05 55.237 158.05 55.3272 158.095C56.5884 158.365 57.7595 158.725 58.9305 159.041C59.9667 159.356 61.0478 159.671 62.1289 159.897C65.0409 160.555 68.017 160.887 71.0024 160.888C72.266 160.895 73.529 160.835 74.7862 160.707L74.6508 160.302C70.507 160.662 66.0476 160.392 62.2188 159.491C61.1377 159.221 60.0566 158.906 59.0205 158.635C57.8497 158.32 56.6784 157.96 55.4171 157.69ZM21.4544 158.32V158.816C22.2076 159.304 23.0265 159.684 23.8865 159.942C27.13 160.888 31.0487 160.302 33.1205 159.896C34.472 159.626 35.7782 159.266 37.0394 158.951C37.9404 158.725 38.7962 158.5 39.7421 158.275C39.7348 158.138 39.75 158.001 39.7871 157.87C38.8411 158.095 37.8952 158.32 36.9493 158.59C35.688 158.906 34.3818 159.266 33.0306 159.536C31.0035 159.942 27.1298 160.482 23.9767 159.581C23.073 159.3 22.2213 158.874 21.4544 158.32Z" fill="#EC8400"/>
<path d="M50.9124 78.8634C50.9124 78.8634 49.0657 78.4129 48.0748 77.6022C48.0748 77.6022 49.7413 79.8543 50.9124 80.0795V78.8634Z" fill="#F1C0BA"/>
<path d="M76.8137 84.9449L73.8407 93.8187C73.7507 94.134 73.8859 94.3589 74.2012 94.3589H79.3812C79.541 94.3493 79.6945 94.293 79.8226 94.197C79.9507 94.1009 80.0477 93.9694 80.1017 93.8187L83.0747 84.9449C83.1647 84.6296 83.0295 84.4045 82.7144 84.4045H77.5343C77.3792 84.4291 77.2325 84.4912 77.107 84.5854C76.9814 84.6796 76.8807 84.803 76.8137 84.9449Z" fill="#5B6F8B"/>
<path d="M223.701 145.122V154.401C223.701 154.454 223.691 154.507 223.671 154.556C223.65 154.606 223.62 154.65 223.583 154.688C223.545 154.726 223.5 154.756 223.451 154.776C223.402 154.796 223.349 154.807 223.295 154.806H186.81C186.757 154.807 186.704 154.796 186.655 154.776C186.605 154.756 186.561 154.726 186.523 154.688C186.485 154.65 186.455 154.606 186.435 154.556C186.415 154.507 186.404 154.454 186.405 154.401V145.122C186.404 145.069 186.415 145.016 186.435 144.967C186.455 144.917 186.485 144.873 186.523 144.835C186.561 144.797 186.605 144.767 186.655 144.747C186.704 144.727 186.757 144.717 186.81 144.717H223.295C223.349 144.717 223.402 144.727 223.451 144.747C223.5 144.767 223.545 144.797 223.583 144.835C223.62 144.873 223.65 144.917 223.67 144.967C223.691 145.016 223.701 145.069 223.701 145.122Z" fill="#FA5814"/>
<path d="M220.908 154.762V172.284C220.905 172.546 220.8 172.797 220.615 172.982C220.429 173.168 220.179 173.273 219.917 173.275H190.143C189.881 173.273 189.63 173.168 189.445 172.982C189.259 172.797 189.154 172.546 189.152 172.284V154.762H220.908Z" fill="#FA5814"/>
<path d="M200.549 154.762H209.512V173.275H200.549V154.762Z" fill="#FDD333"/>
<path d="M200.549 144.717H209.512V154.807H200.549V144.717Z" fill="#FDD333"/>
<path d="M205.188 144.718H203.161C201.315 141.069 198.702 139.808 196.675 139.448C195.62 139.229 194.532 139.229 193.477 139.448C193.589 138.922 193.821 138.429 194.153 138.007C195.323 136.475 197.35 135.979 199.152 136.565C205.008 138.412 205.188 144.718 205.188 144.718H205.188Z" fill="#FCC800"/>
<path d="M199.782 144.718H197.395C193.251 142.736 193.476 139.447 193.476 139.447C194.531 139.228 195.62 139.228 196.675 139.447C196.99 142.736 199.782 144.718 199.782 144.718Z" fill="#E3B400"/>
<path d="M204.918 144.718H206.945C208.792 141.069 211.404 139.808 213.431 139.448C214.486 139.229 215.575 139.229 216.629 139.448C216.517 138.922 216.286 138.429 215.954 138.007C214.783 136.475 212.756 135.979 210.954 136.565C205.098 138.412 204.918 144.718 204.918 144.718Z" fill="#FCC800"/>
<path d="M210.278 144.718H212.665C216.809 142.736 216.584 139.447 216.584 139.447C215.529 139.228 214.441 139.228 213.386 139.447C213.071 142.736 210.278 144.718 210.278 144.718Z" fill="#E3B400"/>
<g opacity="0.15">
<path d="M200.549 154.762H209.513V156.789H200.549V154.762Z" fill="#131514"/>
</g>
<g opacity="0.15">
<path d="M209.511 154.762H220.907V156.789H209.511V154.762Z" fill="#131514"/>
</g>
<g opacity="0.15">
<path d="M189.152 154.762H200.548V156.789H189.152V154.762Z" fill="#131514"/>
</g>
</svg>
